Coordinates
version=1
nRows=285
nColumns=2
inDegrees=no
endheader
time	elbow_flexion
0.0	9.508107386946792e-05
0.0010005002501250625	9.60370911335398e-05
0.002001000500250125	9.700272047538129e-05
0.003001500750375187	9.797805852864137e-05
0.00400200100050025	9.896320289827909e-05
0.0050025012506253125	9.995825217032423e-05
0.006003001500750374	0.00010096330592173395
0.007003501750875437	0.00010197846473034929
0.0080040020010005	0.0001030038301849516
0.009004502251125562	0.00010403950489541978
0.010005002501250625	0.0001050855925029896
0.011005502751375688	0.00010614219769061617
0.012006003001500749	0.00010720942619343942
0.013006503251625811	0.00010828738480935668
0.014007003501750874	0.00010937618140969939
0.015007503751875937	0.00011047592495001816
0.016008004002001	0.00011158672548097476
0.01700850425212606	0.00011270869415934659
0.018009004502251125	0.0001138419432591366
0.019009504752376186	0.00011498658618279978
0.02001000500250125	0.00011614273747257918
0.02101050525262631	0.00011731051282195672
0.022011005502751375	0.00011849002908721904
0.023011505752876436	0.00011968140429913937
0.024012006003001497	0.00012088475767477553
0.02501250625312656	0.0001221002096293897
0.026013006503251623	0.00012332788178848257
0.027013506753376687	0.00012456789699995344
0.028014007003501748	0.00012582037934637914
0.029014507253626812	0.00012708545415741757
0.030015007503751873	0.00012836324802233424
0.031015507753876938	0.000129653888802658
0.032016008004002	0.000130957505644958
0.03301650825412706	0.00013227422899375594
0.03401700850425212	0.00013360419060456073
0.03501750875437719	0.00013494752355703993
0.03601800900450225	0.00013630436226831985
0.03701850925462731	0.0001376748425064204
0.03801900950475237	0.00013905910140382354
0.03901950975487744	0.00014045727747118047
0.0400200100050025	0.00014186951061115338
0.04102051025512756	0.00014329594213239802
0.04202101050525262	0.0001447367147636856
0.04302151075537768	0.00014619197266816698
0.04402201100550275	0.0001476618614577795
0.04502251125562781	0.00014914652820779915
0.04602301150575287	0.00015064612147153665
0.047023511755877934	0.00015216079129518447
0.048024012006002995	0.00015369068923280953
0.04902451225612806	0.00015523596836149785
0.05002501250625312	0.00015679678329665124
0.051025512756378184	0.00015837329020743576
0.052026013006503245	0.0001599656468323883
0.05302651325662831	0.0001615740124951766
0.054027013506753374	0.00016319854812051887
0.055027513756878435	0.00016483941625026292
0.056028014007003496	0.00016649678105962645
0.05702851425712856	0.0001681708083736002
0.058029014507253625	0.00016986166568351582
0.059029514757378686	0.00017156952216377904
0.06003001500750375	0.00017329454868877256
0.06103051525762881	0.00017503691784992654
0.062031015507753876	0.0001767968039729614
0.06303151575787894	0.00017857438313530164
0.064032016008004	0.00018036983318366935
0.06503251625812906	0.00018218333375184603
0.06603301650825412	0.00018401506627862063
0.06703351675837918	0.0001858652140259126
0.06803401700850424	0.00018773396209707802
0.06903451725862932	0.0001896214974553998
0.07003501750875438	0.00019152800894276282
0.07103551775887944	0.00019345368729851468
0.0720360180090045	0.00019539872517852108
0.07303651825912956	0.00019736331717440324
0.07403701850925462	0.00019934765983297737
0.07503751875937968	0.00020135195167588296
0.07603801900950474	0.00020337639321941028
0.0770385192596298	0.0002054211869945261
0.07803901950975488	0.00020748653756710067
0.07903951975987994	0.00020957265155833495
0.080040020010005	0.00021167973766539883
0.08104052026013006	0.00021380800668226692
0.08204102051025512	0.00021595767152077217
0.08304152076038018	0.0002181289472318647
0.08404202101050524	0.00022032205102708665
0.0850425212606303	0.00022253720230025917
0.08604302151075537	0.00022477462264939159
0.08704352176088044	0.00022703453589880519
0.0880440220110055	0.00022931716812148176
0.08904452226113056	0.00023162274766163468
0.09004502251125562	0.00023395150515750717
0.09104552276138068	0.0002363036735643965
0.09204602301150575	0.00023867948817791524
0.0930465232616308	0.000241079186657475
0.09404702351175587	0.0002435030090500169
0.09504752376188093	0.00024595119781397164
0.09604802401200599	0.00024842399784346313
0.09704852426213106	0.00025092165649275445
0.09804902451225612	0.000253444423600936
0.09904952476238119	0.00025599255151686595
0.10005002501250625	0.00025856629512435584
0.10105052526263131	0.0002611659118676105
0.10205102551275637	0.0002637916617769225
0.10305152576288143	0.00026644380749462406
0.10405202601300649	0.00026912261430129836
0.10505252626313155	0.0002718283501422546
0.10605302651325663	0.00027456128565426515
0.10705352676338169	0.00027732169419257525
0.10805402701350675	0.00028010985185817873
0.10905452726363181	0.0002829260375253698
0.11005502751375687	0.00028577053286956637
0.11105552776388193	0.00028864362239542117
0.11205602801400699	0.0002915455934652004
0.11305652826413205	0.00029447673632746065
0.11405702851425711	0.00029743734414600326
0.11505752876438219	0.00030042771302912254
0.11605802901450725	0.00030344814205914597
0.11705852926463231	0.0003064989333222704
0.11805902951475737	0.00030958039193869407
0.11905952976488243	0.00031269282609305854
0.1200600300150075	0.00031583654706518146
0.12106053026513255	0.0003190118692611113
0.12206103051525762	0.0003222191102444835
0.12306153076538268	0.0003254585907681935
0.12406203101550775	0.0003287306348063868
0.1250625312656328	0.00033203556958676903
0.12606303151575787	0.00033537372562323617
0.12706353176588292	0.00033874543674884043
0.128064032016008	0.00034215104014907114
0.12906453226613307	0.00034559087639548375
0.13006503251625812	0.00034906528947965506
0.1310655327663832	0.00035257462684748253
0.13206603301650824	0.00035611923943382347
0.1330665332666333	0.0003596994816974861
0.13406703351675836	0.00036331571165656453
0.13506753376688344	0.00036696829092413067
0.13606803401700848	0.00037065758474428173
0.13706853426713356	0.0003743839620285497
0.13806903451725863	0.0003781477953926693
0.13906953476738368	0.0003819494611937265
0.14007003501750875	0.00038578933956765946
0.1410705352676338	0.0003896678144671526
0.14207103551775888	0.000393585273699898
0.14307153576788392	0.00039754210896724367
0.144072036018009	0.0004015387159032276
0.14507253626813404	0.00040557549411399834
0.14607303651825912	0.00040965284721764065
0.1470735367683842	0.0004137711828843807
0.14807403701850924	0.0004179309128772122
0.14907453726863432	0.0004221324530929157
0.15007503751875936	0.00042637622360349245
0.15107553776888444	0.0004306626486980122
0.15207603801900949	0.0004349921569248785
0.15307653826913456	0.0004393651811345137
0.1540770385192596	0.00044378215852247655
0.15507753876938468	0.00044824353067300453
0.15607803901950976	0.00045274974360299375
0.1570785392696348	0.00045730124780641424
0.15807903951975988	0.0004618984982991805
0.15907953976988493	0.0004665419546644498
0.16008004002001	0.00047123208109839447
0.16108054027013505	0.0004759693464564161
0.16208104052026012	0.0004807542242998274
0.16308154077038517	0.0004855871929429993
0.16408204102051024	0.0004904687355009784
0.16508254127063532	0.0004953993399375758
0.16608304152076037	0.0005003794991139457
0.16708354177088544	0.0005054097108376384
0.1680840420210105	0.000510490477912148
0.16908454227113556	0.000515622308186953
0.1700850425212606	0.0005208057146080575
0.17108554277138568	0.0005260412152690348
0.17208604302151073	0.0005313293334625827
0.1730865432716358	0.0005366705977325856
0.17408704352176088	0.0005420655419267137
0.17508754377188593	0.0005475147052495195
0.176088044022011	0.000553018632316091
0.17708854427213605	0.0005585778732062222
0.17808904452226113	0.0005641929835191317
0.17908954477238617	0.0005698645244287203
0.18009004502251125	0.0005755930627393893
0.1810905452726363	0.0005813791709424063
0.18209104552276137	0.0005872234272728364
0.18309154577288644	0.0005931264157670399
0.1840920460230115	0.0005990887263207454
0.18509254627313657	0.0006051109547476941
0.1860930465232616	0.0006111937028388844
0.1870935467733867	0.0006173375784223828
0.18809404702351173	0.0006235431954237546
0.1890945472736368	0.0006298111739270807
0.19009504752376186	0.000636142140236589
0.19109554777388693	0.0006425367269388976
0.19209604802401198	0.0006489955729658737
0.19309654827413705	0.0006555193236581342
0.19409704852426213	0.0006621086308291511
0.19509754877438718	0.0006687641528300238
0.19609804902451225	0.0006754865546148772
0.1970985492746373	0.0006822765078069174
0.19809904952476237	0.0006891346907651443
0.19909954977488742	0.0006960617886517292
0.2001000500250125	0.0007030584935000556
0.20110055027513754	0.0007101255042834505
0.20210105052526262	0.0007172635269845861
0.2031015507753877	0.000724473274665579
0.20410205102551274	0.0007317554675387816
0.2051025512756378	0.0007391108330382872
0.20610305152576286	0.0007465401058921307
0.20710355177588793	0.0007540440281952209
0.20810405202601298	0.0007616233494829929
0.20910455227613806	0.00076927882680579
0.2101050525262631	0.0007770112248039856
0.21110555277638818	0.00078482131578386
0.21210605302651325	0.0007927098797942144
0.2131065532766383	0.0008006777047037617
0.21410705352676337	0.0008087255862792796
0.21510755377688842	0.0008168543282645389
0.2161080540270135	0.0008250647424600175
0.21710855427713854	0.000833357648803406
0.21810905452726362	0.0008417338754509117
0.21910955477738867	0.0008501942588593686
0.22011005502751374	0.0008587396438691641
0.22111055527763882	0.0008673708837879943
0.22211105552776386	0.0008760888404754344
0.22311155577788894	0.0008848943844283662
0.22411205602801398	0.0008937883948672426
0.22511255627813906	0.000902771759823209
0.2261130565282641	0.0009118453762260903
0.22711355677838918	0.0009210101499932554
0.22811405702851423	0.0009302669961193485
0.2291145572786393	0.0009396168387669258
0.23011505752876438	0.0009490606113579826
0.23111555777888942	0.0009585992566663855
0.2321160580290145	0.0009682337269112244
0.23311655827913955	0.0009779649838510956
0.23411705852926462	0.0009877939988793003
0.23511755877938967	0.0009977217531200056
0.23611805902951474	0.001007749237525349
0.2371185592796398	0.0010178774529734991
0.23811905952976486	0.0010281074103677046
0.23911955977988994	0.0010384401307362984
0.240120060030015	0.0010488766453337134
0.24112056028014006	0.0010594179957424934
0.2421210605302651	0.0010700652339762976
0.24312156078039018	0.0010808194225839464
0.24412206103051523	0.0010916816347544822
0.2451225612806403	0.0011026529544232685
0.24612306153076535	0.0011137344763791528
0.24712356178089043	0.0011249273063726655
0.2481240620310155	0.0011362325612253078
0.24912456228114055	0.001147651368939913
0.2501250625312656	0.0011591848688120967
0.2511255627813907	0.001170834211542803
0.25212606303151575	0.0011826005593519816
0.2531265632816408	0.0011944850860933593
0.25412706353176584	0.0012064889773703668
0.25512756378189094	0.0012186134306532029
0.256128064032016	0.0012308596553970508
0.25712856428214104	0.0012432288731614608
0.25812906453226614	0.001255722317730924
0.2591295647823912	0.0012683412352366094
0.26013006503251623	0.0012810868842793263
0.2611305652826413	0.0012939605360536878
0.2621310655327664	0.0013069634744735036
0.26313156578289143	0.0013200969962983888
0.2641320660330165	0.001333362411261659
0.2651325662831415	0.001346761042199446
0.2661330665332666	0.0013602942251811053
0.2671335667833917	0.0013739633096409038
0.2681340670335167	0.0013877696585110131
0.2691345672836418	0.001401714648355786
0.27013506753376687	0.0014157996695073859
0.2711355677838919	0.0014300261262027297
0.27213606803401696	0.0014443954367217829
0.27313656828414207	0.001458909033527215
0.2741370685342671	0.0014735683634054396
0.27513756878439216	0.0014883748876090117
0.27613806903451726	0.0015033300820004574
0.2771385692846423	0.0015184354371974957
0.27813906953476736	0.0015336924587196926
0.2791395697848924	0.0015491026671365534
0.2801400700350175	0.0015646675982170836
0.28114057028514255	0.0015803888030807862
0.2821410705352676	0.0015962678483501748
0.28314157078539265	0.0016123063163047619
0.28414207103551775	0.0016285058050365675
